PathFileType	4	(X/Y/Z)	C:\Users\italobelli\Desktop\GitHub\PTbot_officialCBL\Personal_Results\ABD23_noisy2.trc
DataRate	CameraRate	NumFrames	NumMarkers	Units	OrigDataRate	OrigDataStartFrame	OrigNumFrames
105.444444	105.444444	21	9	m	105.444444	119	950
Frame#	Time		gu		centelbow		EpL		centpxt8		centijc7		ij		ts		aa		ai
			X1	Y1	Z1	X2	Y2	Z2	X3	Y3	Z3	X4	Y4	Z4	X5	Y5	Z5	X6	Y6	Z6	X7	Y7	Z7	X8	Y8	Z8	X9	Y9	Z9

119	1.1191	-0.094983	-0.0080007	0.15465	-0.13168	-0.23512	0.20369	-0.13925	-0.22441	0.23297	-0.046816	-0.15316	-0.008669	-0.046816	0.031938	-0.008669	0	0	0	-0.12625	0.027497	0.034282	-0.12497	0.025686	0.15357	-0.1426	-0.084765	0.038023
120	1.1286	-0.094888	-0.007729	0.15447	-0.13153	-0.23452	0.20499	-0.13923	-0.22366	0.23415	-0.046816	-0.15316	-0.008669	-0.046816	0.031938	-0.008669	0	0	0	-0.12612	0.027412	0.034048	-0.1249	0.025915	0.15336	-0.14229	-0.084856	0.038107
121	1.138	-0.094791	-0.0074409	0.15429	-0.13137	-0.23388	0.20637	-0.1392	-0.22286	0.23539	-0.046816	-0.15316	-0.008669	-0.046816	0.031938	-0.008669	0	0	0	-0.12598	0.027324	0.033805	-0.12482	0.026156	0.15313	-0.14198	-0.084949	0.038199
122	1.1475	-0.09469	-0.007137	0.1541	-0.1312	-0.2332	0.20782	-0.13916	-0.22202	0.2367	-0.046816	-0.15316	-0.008669	-0.046816	0.031938	-0.008669	0	0	0	-0.12583	0.027232	0.033554	-0.12475	0.026409	0.1529	-0.14165	-0.085046	0.0383
123	1.157	-0.094588	-0.0068181	0.1539	-0.13103	-0.2325	0.20933	-0.13912	-0.22114	0.23806	-0.046816	-0.15316	-0.008669	-0.046816	0.031938	-0.008669	0	0	0	-0.12569	0.027136	0.033296	-0.12467	0.026674	0.15266	-0.14132	-0.085145	0.03841
124	1.1665	-0.094483	-0.0064846	0.15371	-0.13085	-0.23176	0.2109	-0.13908	-0.22023	0.23948	-0.046816	-0.15316	-0.008669	-0.046816	0.031938	-0.008669	0	0	0	-0.12553	0.027036	0.033031	-0.1246	0.026949	0.15242	-0.14097	-0.085246	0.038528
125	1.176	-0.094376	-0.0061373	0.15351	-0.13067	-0.23098	0.21253	-0.13904	-0.21927	0.24095	-0.046816	-0.15316	-0.008669	-0.046816	0.031938	-0.008669	0	0	0	-0.12538	0.026933	0.03276	-0.12452	0.027235	0.15217	-0.14061	-0.08535	0.038654
126	1.1855	-0.094268	-0.0057767	0.15331	-0.13047	-0.23018	0.21422	-0.13899	-0.21828	0.24246	-0.046816	-0.15316	-0.008669	-0.046816	0.031938	-0.008669	0	0	0	-0.12522	0.026827	0.032484	-0.12444	0.02753	0.15191	-0.14024	-0.085457	0.038788
127	1.1949	-0.094159	-0.0054034	0.1531	-0.13027	-0.22935	0.21595	-0.13894	-0.21725	0.24403	-0.046816	-0.15316	-0.008669	-0.046816	0.031938	-0.008669	0	0	0	-0.12506	0.026718	0.032203	-0.12436	0.027835	0.15165	-0.13987	-0.085565	0.03893
128	1.2044	-0.094048	-0.0050181	0.1529	-0.13007	-0.22849	0.21774	-0.13888	-0.21619	0.24563	-0.046816	-0.15316	-0.008669	-0.046816	0.031938	-0.008669	0	0	0	-0.12489	0.026605	0.031919	-0.12428	0.028149	0.15138	-0.13949	-0.085675	0.03908
129	1.2139	-0.093937	-0.0046215	0.15269	-0.12986	-0.2276	0.21957	-0.13883	-0.21509	0.24728	-0.046816	-0.15316	-0.008669	-0.046816	0.031938	-0.008669	0	0	0	-0.12473	0.026489	0.031632	-0.1242	0.02847	0.15111	-0.1391	-0.085787	0.039237
130	1.2234	-0.093825	-0.0042141	0.15248	-0.12964	-0.22669	0.22144	-0.13877	-0.21396	0.24896	-0.046816	-0.15316	-0.008669	-0.046816	0.031938	-0.008669	0	0	0	-0.12456	0.02637	0.031342	-0.12412	0.028799	0.15083	-0.13871	-0.0859	0.039401
131	1.2329	-0.093713	-0.0037965	0.15227	-0.12942	-0.22574	0.22336	-0.1387	-0.2128	0.25068	-0.046816	-0.15316	-0.008669	-0.046816	0.031938	-0.008669	0	0	0	-0.12439	0.026248	0.031051	-0.12404	0.029136	0.15055	-0.13831	-0.086015	0.039572
132	1.2424	-0.093601	-0.0033693	0.15205	-0.12919	-0.22478	0.22531	-0.13864	-0.21161	0.25243	-0.046816	-0.15316	-0.008669	-0.046816	0.031938	-0.008669	0	0	0	-0.12422	0.026123	0.030759	-0.12396	0.029479	0.15027	-0.13791	-0.086131	0.03975
133	1.2518	-0.093489	-0.0029333	0.15184	-0.12896	-0.22378	0.22729	-0.13857	-0.21039	0.25421	-0.046816	-0.15316	-0.008669	-0.046816	0.031938	-0.008669	0	0	0	-0.12405	0.025996	0.030467	-0.12388	0.029827	0.14998	-0.13751	-0.086248	0.039935
134	1.2613	-0.093377	-0.002489	0.15163	-0.12872	-0.22277	0.2293	-0.13849	-0.20914	0.25601	-0.046816	-0.15316	-0.008669	-0.046816	0.031938	-0.008669	0	0	0	-0.12388	0.025866	0.030175	-0.1238	0.030181	0.1497	-0.1371	-0.086366	0.040127
135	1.2708	-0.093267	-0.002037	0.15141	-0.12848	-0.22173	0.23134	-0.13842	-0.20786	0.25784	-0.046816	-0.15316	-0.008669	-0.046816	0.031938	-0.008669	0	0	0	-0.12371	0.025733	0.029885	-0.12372	0.030541	0.14941	-0.13669	-0.086485	0.040325
136	1.2803	-0.093157	-0.0015779	0.1512	-0.12823	-0.22067	0.2334	-0.13834	-0.20656	0.25968	-0.046816	-0.15316	-0.008669	-0.046816	0.031938	-0.008669	0	0	0	-0.12354	0.025598	0.029596	-0.12365	0.030904	0.14912	-0.13629	-0.086605	0.040528
137	1.2898	-0.093049	-0.0011125	0.15098	-0.12798	-0.21958	0.23548	-0.13826	-0.20523	0.26155	-0.046816	-0.15316	-0.008669	-0.046816	0.031938	-0.008669	0	0	0	-0.12337	0.025461	0.029311	-0.12357	0.031271	0.14883	-0.13588	-0.086725	0.040738
138	1.2993	-0.092942	-0.00064116	0.15077	-0.12773	-0.21848	0.23758	-0.13818	-0.20388	0.26342	-0.046816	-0.15316	-0.008669	-0.046816	0.031938	-0.008669	0	0	0	-0.1232	0.025321	0.029029	-0.1235	0.031642	0.14853	-0.13548	-0.086845	0.040954
139	1.3087	-0.092837	-0.00016468	0.15055	-0.12748	-0.21736	0.2397	-0.13809	-0.2025	0.26531	-0.046816	-0.15316	-0.008669	-0.046816	0.031938	-0.008669	0	0	0	-0.12304	0.025179	0.028751	-0.12343	0.032015	0.14824	-0.13508	-0.086966	0.041176
